# xmcd
#
# Track frame offsets: 
#        150
#        18176
#        38426
#        56515
#        71391
#        85440
#        101252
#        115912
#        136953
#        154017
#        170333
#        186163
#        200378
#        219250
#        234766
#        251154
#        270350
#        284893
#
# Disc length: 4010 seconds
#
# Revision: 0
# Processed by: cddbd v1.5.2PL0 Copyright (c) Steve Scherf et al.
# Submitted via: ExactAudioCopyFreeDBPlugin 1.0
#
DISCID=ee0fa812
DTITLE=พรรณนิภา จิระศักดิ์ - สาวเชียงใหม่+สาวเชียงเชียงฮาย
DYEAR=1900
DGENRE=
TTITLE0=สาวเชียงใหม่
TTITLE1=สาวเชียงราย
TTITLE2=เชียงรายรำลึก
TTITLE3=แม่สอดสะอื้น
TTITLE4=กว๊านพะเยา
TTITLE5=กุหลาบเวียงพิงค์
TTITLE6=เทพธิดาดอย
TTITLE7=ถิ่นไทยงาม
TTITLE8=มนต์เมืองเหนือ
TTITLE9=อดีตรักดอกทองกวาว
TTITLE10=มนต์รักดอกคำใต้ (คู่)
TTITLE11=ชำมะเลียง
TTITLE12=รางวัลแด่คนช่างฝัน
TTITLE13=ขอสูมาเต้อ
TTITLE14=สวรรค์บ้านนอก
TTITLE15=สาวสะอื้น
TTITLE16=นํ้าใจชาวเหนือ(สาวเครือฟ้า)
TTITLE17=อุ้ยคำ
EXTD=
EXTT0=
EXTT1=
EXTT2=
EXTT3=
EXTT4=
EXTT5=
EXTT6=
EXTT7=
EXTT8=
EXTT9=
EXTT10=
EXTT11=
EXTT12=
EXTT13=
EXTT14=
EXTT15=
EXTT16=
EXTT17=
PLAYORDER=
